<svg width="396" height="396" xmlns="http://www.w3.org/2000/svg">

 <g>
  <title>background</title>
  <rect fill="none" id="canvas_background" height="402" width="582" y="-1" x="-1"/>
 </g>
 <g>
  <title>Layer 1</title>
  <path fill="#66fcf1" id="svg_1" d="m390,190.762l-47.635,0l0,-48.824c0,-4.142 -3.357,-7.5 -7.5,-7.5l-16.932,0l0,-88.092c0,-5.523 -4.478,-10 -10,-10l-297.933,0c-5.523,0 -10,4.477 -10,10l0,191.182c0,5.523 4.477,10 10,10l103.467,0c-1.99,11.434 -6.269,30.326 -14.881,49.079c-1.422,3.096 -1.169,6.703 0.67,9.571c1.839,2.868 5.011,4.603 8.418,4.603l70.528,0l0,26.272c0,4.142 3.357,7.5 7.5,7.5l107.975,0l0,9.101c0,3.313 2.687,6 6,6l90.323,0c3.314,0 6,-2.687 6,-6l0,-156.892c0,-3.314 -2.686,-6 -6,-6zm-211.798,-48.824l0,85.591l-158.202,0l0,-171.183l277.934,0l0,78.091l-112.232,0c-4.142,0.001 -7.5,3.358 -7.5,7.501zm115.475,187.615l-100.475,0l0,-8.709l59.583,0l0,0.704c0,4.143 3.357,7.5 7.5,7.5c4.143,0 7.5,-3.357 7.5,-7.5l0,-0.704l25.892,0l0,8.709zm0,-132.791l0,109.082l-100.475,0l0,-156.406l134.163,0l0,41.324l-27.688,0c-3.314,0 -6,2.686 -6,6zm90.323,150.892l-78.323,0l0,-7.065l33.162,0l0,0.597c0,3.314 2.686,6 6,6c3.313,0 6,-2.686 6,-6l0,-0.597l33.161,0l0,7.065zm0,-19.066l-78.323,0l0,-106.761l78.323,0l0,106.761zm0,-118.761l-78.323,0l0,-7.065l78.323,0l0,7.065z"/>
 </g>
</svg>