<svg width="512.001" height="512.001" xmlns="http://www.w3.org/2000/svg">

 <g>
  <title>background</title>
  <rect fill="none" id="canvas_background" height="402" width="582" y="-1" x="-1"/>
 </g>
 <g>
  <title>Layer 1</title>
  <path fill="#ff0000" id="svg_3" d="m294.111,256.001l209.998,-209.998c10.523,-10.524 10.523,-27.586 0,-38.109c-10.524,-10.524 -27.587,-10.524 -38.11,0l-209.999,209.998l-209.998,-209.998c-10.524,-10.524 -27.586,-10.524 -38.109,0s-10.524,27.586 0,38.109l209.998,209.998l-209.998,209.998c-10.524,10.524 -10.524,27.586 0,38.109c10.524,10.524 27.586,10.523 38.109,0l209.998,-209.998l209.997,209.998c10.524,10.524 27.587,10.523 38.11,0c10.523,-10.524 10.523,-27.586 0,-38.109l-209.996,-209.998z"/>
 </g>
</svg>