<svg width="482.239" height="482.239" xmlns="http://www.w3.org/2000/svg">

 <g>
  <title>background</title>
  <rect fill="none" id="canvas_background" height="402" width="582" y="-1" x="-1"/>
 </g>
 <g>
  <title>Layer 1</title>
  <path fill="#ffffff" id="svg_1" d="m465.016,0l-447.793,0c-9.52,0 -17.223,7.703 -17.223,17.223l0,447.793c0,9.52 7.703,17.223 17.223,17.223l447.793,0c9.52,0 17.223,-7.703 17.223,-17.223l0,-447.793c0,-9.52 -7.703,-17.223 -17.223,-17.223zm-17.223,447.793l-413.347,0l0,-413.347l413.348,0l0,413.347l-0.001,0z"/>
  <path fill="#0cc6c5" id="svg_2" d="m373.856,184.405l-24.354,-24.354l-142.828,142.828l-73.937,-73.937l-24.354,24.354l98.291,98.291l167.182,-167.182z"/>
 </g>
</svg>