<svg width="128" height="128" xmlns="http://www.w3.org/2000/svg">
 <title/>

 <g>
  <title>background</title>
  <rect fill="none" id="canvas_background" height="402" width="582" y="-1" x="-1"/>
 </g>
 <g>
  <title>Layer 1</title>
  <path fill="#66fcf1" id="svg_1" d="m110.13,9.69a6.41,6.41 0 0 0 -4.36,-1.69l-32,0a10.18,10.18 0 0 0 -2.48,-4.86a9.94,9.94 0 0 0 -7.35,-3.14l0,0a9.9,9.9 0 0 0 -9.88,8l-32.06,0a6,6 0 0 0 -6,6l0,108a6,6 0 0 0 6,6l84,0a5.94,5.94 0 0 0 6,-6l0,-108a5.85,5.85 0 0 0 -1.87,-4.31zm-54.27,2.31a2,2 0 0 0 2,-2a5.91,5.91 0 0 1 6.08,-6l0,0a5.88,5.88 0 0 1 4.46,1.86a6.19,6.19 0 0 1 1.6,4.14a2,2 0 0 0 2,2l12,0l0,12l-40,0l0,-12l11.86,0zm52.14,110a2,2 0 0 1 -2,2l-84,0a2,2 0 0 1 -2,-2l0,-108a2,2 0 0 1 2,-2l18,0l0,14a2,2 0 0 0 2,2l44,0a2,2 0 0 0 2,-2l0,-14l17.77,0a2.38,2.38 0 0 1 1.63,0.61a1.85,1.85 0 0 1 0.6,1.39l0,108z"/>
  <path fill="#66fcf1" id="svg_2" d="m98,20l-4,0a2,2 0 0 0 0,4l2,0l0,88l-64,0l0,-88l2,0a2,2 0 0 0 0,-4l-4,0a2,2 0 0 0 -2,2l0,92a2,2 0 0 0 2,2l68,0a2,2 0 0 0 2,-2l0,-92a2,2 0 0 0 -2,-2z"/>
  <path fill="#66fcf1" id="svg_3" d="m66,48l22,0a2,2 0 0 0 0,-4l-22,0a2,2 0 0 0 0,4z"/>
  <path fill="#66fcf1" id="svg_4" d="m66,60l16,0a2,2 0 0 0 0,-4l-16,0a2,2 0 0 0 0,4z"/>
  <path fill="#66fcf1" id="svg_5" d="m46,59.8a2,2 0 0 0 1.41,0.58l0.09,0a2,2 0 0 0 1.5,-0.71l10.53,-12.67a2,2 0 1 0 -3.06,-2.57l-9.19,11l-5.87,-5.86a2,2 0 0 0 -2.82,2.83l7.41,7.4z"/>
  <path fill="#66fcf1" id="svg_6" d="m88,76l-22,0a2,2 0 0 1 0,-4l22,0a2,2 0 0 1 0,4z"/>
  <path fill="#66fcf1" id="svg_7" d="m82,88l-16,0a2,2 0 0 1 0,-4l16,0a2,2 0 0 1 0,4z"/>
  <path fill="#66fcf1" id="svg_8" d="m47.41,88.38a2,2 0 0 1 -1.41,-0.58l-7.41,-7.41a2,2 0 1 1 2.82,-2.83l5.87,5.86l9.19,-11a2,2 0 1 1 3.06,2.58l-10.53,12.67a2,2 0 0 1 -1.45,0.71l-0.14,0z"/>
 </g>
</svg>
